<svg width="206" height="34" viewBox="0 0 206 34" fill="none" xmlns="http://www.w3.org/2000/svg">
<path d="M13.896 27.5H4.152L2.424 9.668H10.56L11.04 21.62V22.172H11.088L11.352 21.548L16.944 9.668H24.264L24.936 21.548L24.984 22.148H25.008L25.248 21.62L30.648 9.668H38.928L29.64 27.5H19.896L19.344 16.46V16.052H19.296L13.896 27.5ZM45.1984 12.74C51.9904 12.74 55.3504 15.572 54.2704 20.588L54.2464 20.804H54.2224L54.1264 21.332H40.1104C39.9664 23.084 41.0944 23.78 43.0144 23.78C44.9584 23.78 46.0864 23.108 46.6144 22.148L46.6624 22.076H53.9104L53.8624 22.148C52.6624 25.196 49.2064 28.028 42.2224 28.028C35.6224 28.028 31.9024 25.316 32.9824 20.252L33.0304 20.012C34.0144 15.428 38.5744 12.74 45.1984 12.74ZM44.4784 16.676C42.7024 16.676 41.4304 17.372 40.7824 18.764H47.3824C47.2864 17.492 46.3984 16.676 44.4784 16.676ZM69.6345 12.74C74.4585 12.74 76.8345 15.644 75.8745 20.156L75.8025 20.492C74.8425 25.052 71.2185 28.028 66.3705 28.028C63.6585 28.028 61.5225 27.068 60.7305 24.548H60.6345L60.4185 26.348L60.1785 27.5H52.7625L56.6505 9.14H64.0905L62.9625 14.396L62.4105 16.196H62.5065C64.3305 13.772 66.8985 12.74 69.6345 12.74ZM68.3625 20.516L68.4105 20.276C68.7465 18.668 67.9305 17.324 65.7225 17.324C63.6585 17.324 62.0025 18.716 61.6905 20.252L61.6425 20.492C61.3065 22.076 62.3625 23.42 64.4265 23.42C66.6585 23.42 68.0025 22.196 68.3625 20.516ZM100.218 27.5H91.1938L90.7378 24.596H83.4898L81.7858 27.5H72.6898L84.1378 9.668H96.1858L100.218 27.5ZM88.4818 16.124L86.0578 20.228H90.0418L89.3938 16.124L89.4658 13.628H89.3938L88.4818 16.124ZM114.809 14.396L115.049 13.244H122.489L120.449 22.772C119.033 29.42 114.689 32.252 107.273 32.252C103.601 32.252 100.937 31.868 98.7533 31.148L100.001 27.116C101.969 27.788 105.041 28.028 106.841 28.028C110.153 28.028 112.121 27.188 112.697 25.028L112.721 24.908L113.009 23.804H112.865C111.089 25.844 108.713 26.756 105.905 26.756C101.057 26.756 98.5613 23.828 99.4253 19.82L99.4733 19.58C100.433 15.116 104.033 12.74 108.857 12.74C111.569 12.74 113.777 13.772 114.521 16.172H114.617L114.809 14.396ZM113.657 20.036L113.705 19.796C113.921 18.692 113.009 17.324 110.777 17.324C108.641 17.324 107.249 18.428 106.913 19.964L106.865 20.204C106.553 21.692 107.393 22.7 109.649 22.7C111.881 22.7 113.345 21.404 113.657 20.036ZM132.934 12.74C139.726 12.74 143.086 15.572 142.006 20.588L141.982 20.804H141.958L141.862 21.332H127.846C127.702 23.084 128.83 23.78 130.75 23.78C132.694 23.78 133.822 23.108 134.35 22.148L134.398 22.076H141.646L141.598 22.148C140.398 25.196 136.942 28.028 129.958 28.028C123.358 28.028 119.638 25.316 120.718 20.252L120.766 20.012C121.75 15.428 126.31 12.74 132.934 12.74ZM132.214 16.676C130.438 16.676 129.166 17.372 128.518 18.764H135.118C135.022 17.492 134.134 16.676 132.214 16.676ZM157.658 12.74C161.978 12.74 164.522 14.828 163.322 20.396L161.834 27.5H154.394L155.762 21.02C156.242 18.74 155.546 17.708 153.554 17.708C151.178 17.708 149.642 19.34 149.186 21.476L147.914 27.5H140.498L143.522 13.244H150.938L150.602 14.852L149.978 16.652H150.074C151.85 14.156 154.418 12.74 157.658 12.74ZM172.271 28.028C165.407 28.028 161.807 25.364 162.863 20.396L162.935 20.06C163.919 15.5 168.359 12.74 175.247 12.74C181.679 12.74 184.895 15.404 184.415 19.364V19.436H177.095V19.364C177.023 18.26 176.207 17.348 174.335 17.348C172.343 17.348 170.663 18.524 170.255 20.372L170.207 20.612C169.871 22.292 171.047 23.42 173.015 23.42C174.911 23.42 176.111 22.556 176.639 21.5L176.663 21.404H183.983L183.935 21.524C182.735 25.484 178.703 28.028 172.271 28.028ZM185.379 32.324L185.187 28.484C187.371 28.22 189.027 27.716 190.035 26.276L190.155 26.156H187.155L183.315 13.244H191.499L192.819 20.78L192.723 21.908H192.891L193.275 20.78L197.811 13.244H205.995L196.587 26.492C193.947 30.284 190.779 32.012 185.379 32.324Z" fill="url(#paint0_linear_341_570)"/>
<defs>
<linearGradient id="paint0_linear_341_570" x1="0" y1="17" x2="205" y2="17" gradientUnits="userSpaceOnUse">
<stop stop-color="#B7B7B7"/>
<stop offset="0.514423" stop-color="#FFFFFF"/>
<stop offset="1" stop-color="#C9C9C9"/>
</linearGradient>
</defs>
</svg>
